<svg width="60" height="60" viewBox="0 0 60 60" fill="none" xmlns="http://www.w3.org/2000/svg"><g id="fi_2970708"><g id="Group"><path id="Vector" d="M20.5141 7.45785H31.294C32.525 7.45785 33.5229 6.4599 33.5229 5.22898V3H18.2852V5.22887C18.2852 6.4599 19.2831 7.45785 20.5141 7.45785Z" fill="white"></path><path id="Vector_2" d="M30.0374 16.6618C30.0374 15.7881 30.7457 15.0798 31.6194 15.0798H41.4701V7.78417C41.4702 5.14618 39.3239 3 36.6859 3V5.22887C36.6859 8.20731 34.2714 10.6218 31.293 10.6218H20.513C17.5346 10.6218 15.1201 8.20731 15.1201 5.22887V3C12.4821 3 10.3359 5.14618 10.3359 7.78417V26.5125H12.5647C15.5384 26.5125 17.9577 28.9317 17.9577 31.9054C17.9577 33.3919 17.3532 34.7399 16.377 35.7163C17.3531 36.6927 17.9577 38.0407 17.9577 39.5272C17.9577 41.547 16.8408 43.3102 15.1929 44.234C15.7357 45.0752 16.0522 46.0755 16.0522 47.149C16.0522 50.1227 13.633 52.5419 10.6593 52.5419C10.5546 52.5419 10.4508 52.5381 10.3475 52.5322C10.5113 55.0233 12.5886 57 15.1201 57H36.6859C39.3239 57 41.4702 54.8538 41.4702 52.2158V27.7711H41.1467C35.021 27.7711 30.0374 22.7874 30.0374 16.6618ZM29.7139 52.5422H22.092C21.2183 52.5422 20.51 51.8338 20.51 50.9601C20.51 50.0864 21.2183 49.3781 22.092 49.3781H29.7139C30.5876 49.3781 31.2959 50.0864 31.2959 50.9601C31.2959 51.8338 30.5876 52.5422 29.7139 52.5422Z" fill="white"></path><path id="Vector_3" d="M12.8895 47.1492C12.8895 45.9201 11.8896 44.9203 10.6606 44.9203C9.43159 44.9203 8.43164 45.9201 8.43164 47.1492C8.43164 48.3782 9.43148 49.378 10.6606 49.378C11.8895 49.378 12.8895 48.3782 12.8895 47.1492Z" fill="white"></path><path id="Vector_4" d="M7.1728 26.5125V22.0546H4.94371C3.71279 22.0546 2.71484 23.0526 2.71484 24.2835C2.71484 25.5144 3.71279 26.5124 4.94371 26.5124H7.1728V26.5125Z" fill="white"></path><path id="Vector_5" d="M12.5664 34.1344C13.7974 34.1344 14.7952 33.1364 14.7952 31.9055C14.7952 30.6746 13.7973 29.6766 12.5664 29.6766H6.84996C5.61893 29.6766 4.62109 30.6746 4.62109 31.9055C4.62109 33.1364 5.61893 34.1344 6.84996 34.1344H12.5664Z" fill="white"></path><path id="Vector_6" d="M12.5653 41.7563C13.7963 41.7563 14.7941 40.7584 14.7941 39.5274C14.7941 38.2965 13.7963 37.2985 12.5653 37.2985H8.75426C7.52323 37.2985 6.52539 38.2964 6.52539 39.5273C6.52539 40.7583 7.52334 41.7562 8.75426 41.7562H12.5653V41.7563Z" fill="white"></path><path id="Vector_7" d="M55.1336 28.122H51.5265V23.433C51.5265 20.5672 49.2033 18.2439 46.3375 18.2439H33.3613C34.0968 21.8697 37.3089 24.6071 41.1484 24.6071H43.0538C43.9275 24.6071 44.6358 25.3155 44.6358 26.1892V49.3783H46.3375C49.2036 49.3783 51.5265 47.0553 51.5265 44.1892H55.1336C56.0073 44.1892 56.7156 43.4809 56.7156 42.6072V29.7041C56.7156 28.8303 56.0073 28.122 55.1336 28.122Z" fill="white"></path></g></g></svg>