<svg width="60" height="60" viewBox="0 0 60 60" fill="none" xmlns="http://www.w3.org/2000/svg"><g id="fi_2285551"><g id="Group 1000004803"><path id="Vector" d="M18.9422 18.0427L14.4371 18.3908C13.1835 18.4877 12.0671 19.1447 11.3738 20.1933L6.17819 28.0513C5.65241 28.8466 5.56882 29.8418 5.95445 30.7136C6.34019 31.5854 7.13288 32.1929 8.07486 32.3389L12.1998 32.9777C13.1647 27.8569 15.4747 22.7488 18.9422 18.0427Z" fill="white"></path><path id="Vector_2" d="M28.7383 49.5151L29.3772 53.64C29.5232 54.582 30.1307 55.3747 31.0024 55.7603C31.3651 55.9208 31.749 56 32.131 56C32.6675 56 33.2003 55.8437 33.6647 55.5366L41.523 50.3411C42.5716 49.6477 43.2286 48.5312 43.3253 47.2778L43.6734 42.7727C38.9672 46.2403 33.8591 48.5503 28.7383 49.5151Z" fill="white"></path><path id="Vector_3" d="M27.1854 46.656C27.3286 46.656 27.4726 46.6442 27.6163 46.6202C29.7617 46.2615 31.8295 45.6572 33.802 44.8663L16.8483 27.9125C16.0574 29.885 15.4531 31.9528 15.0943 34.0983C14.953 34.944 15.2366 35.8055 15.8429 36.4118L25.3027 45.8717C25.8061 46.375 26.4854 46.656 27.1854 46.656Z" fill="white"></path><path id="Vector_4" d="M53.5696 27.0548C57.7183 19.0341 57.872 10.5582 57.6552 6.58302C57.5809 5.22098 56.495 4.13508 55.1329 4.06084C54.4856 4.02549 53.7185 4 52.8539 4C48.409 4 41.3757 4.67325 34.6611 8.14636C29.3248 10.9065 22.3275 16.9841 18.1992 24.9711C18.248 25.0092 18.2956 25.0496 18.3405 25.0945L36.6216 43.3756C36.6665 43.4205 36.7068 43.468 36.7449 43.5168C44.7319 39.3884 50.8095 32.3911 53.5696 27.0548ZM35.9507 14.9931C38.9205 12.0233 43.7529 12.023 46.7229 14.9931C48.1616 16.4317 48.9539 18.3446 48.9539 20.3792C48.9539 22.4138 48.1616 24.3267 46.7229 25.7653C45.2381 27.25 43.2871 27.9926 41.3368 27.9928C39.3859 27.9929 37.4358 27.2504 35.9507 25.7653C34.512 24.3267 33.7196 22.4138 33.7196 20.3792C33.7196 18.3446 34.512 16.4317 35.9507 14.9931Z" fill="white"></path><path id="Vector_5" d="M38.1042 23.6108C39.8861 25.3928 42.7857 25.3929 44.5677 23.6108C45.4308 22.7476 45.9063 21.5999 45.9063 20.3791C45.9063 19.1583 45.4308 18.0107 44.5677 17.1475C43.6768 16.2565 42.5064 15.811 41.3359 15.811C40.1656 15.811 38.9952 16.2565 38.1043 17.1475C37.2411 18.0107 36.7656 19.1583 36.7656 20.3791C36.7656 21.5999 37.241 22.7477 38.1042 23.6108Z" fill="white"></path><path id="Vector_6" d="M7.26763 46.8529C7.65753 46.8529 8.04743 46.7042 8.3448 46.4066L13.3186 41.4328C13.9136 40.8379 13.9136 39.8733 13.3186 39.2784C12.7238 38.6834 11.7591 38.6834 11.1642 39.2784L6.19036 44.2522C5.5954 44.8471 5.5954 45.8117 6.19036 46.4066C6.48783 46.7041 6.87773 46.8529 7.26763 46.8529Z" fill="white"></path><path id="Vector_7" d="M17.8781 43.8366C17.2833 43.2416 16.3186 43.2416 15.7237 43.8366L6.16106 53.3992C5.56611 53.9942 5.56611 54.9587 6.16106 55.5537C6.45854 55.8511 6.84843 55.9998 7.23833 55.9998C7.62823 55.9998 8.01813 55.8511 8.31551 55.5536L17.878 45.991C18.4731 45.3961 18.4731 44.4315 17.8781 43.8366Z" fill="white"></path><path id="Vector_8" d="M20.2813 48.3947L15.3075 53.3685C14.7126 53.9635 14.7126 54.928 15.3075 55.523C15.605 55.8205 15.9949 55.9692 16.3847 55.9692C16.7745 55.9692 17.1645 55.8206 17.4619 55.523L22.4357 50.5492C23.0307 49.9542 23.0307 48.9897 22.4357 48.3947C21.8409 47.7997 20.8762 47.7997 20.2813 48.3947Z" fill="white"></path></g></g></svg>