<svg width="60" height="60" viewBox="0 0 60 60" fill="none" xmlns="http://www.w3.org/2000/svg"><g id="popularity 1" clip-path="url(#clip0_271_213)"><g id="Group"><g id="Group_2"><path id="Vector" d="M42.6922 20.8328L39.663 16.0349L33.9933 15.8104C32.6374 15.7567 31.9285 14.1666 32.7967 13.1225L36.4235 8.75886L34.885 3.29724C34.5172 1.99125 35.8103 0.825366 37.0716 1.32858L42.3423 3.42947L47.0612 0.278515C48.19 -0.474936 49.6978 0.394666 49.6093 1.74965L49.24 7.41175L53.6948 10.926C54.7603 11.7666 54.399 13.4694 53.0831 13.804L47.584 15.2024L45.6184 20.5251C45.1496 21.7949 43.4193 21.9841 42.6922 20.8328Z" fill="white"></path></g><path id="Vector_2" d="M11.6675 46.1565C12.5736 46.1565 13.3081 46.8911 13.3081 47.7971V54.3593C13.3081 55.2653 12.5736 55.9998 11.6675 55.9998H3.3554C2.44981 55.9998 1.71484 55.2649 1.71484 54.3593V47.7971C1.71484 46.8915 2.44981 46.1565 3.3554 46.1565H11.6675Z" fill="white"></path><path id="Vector_3" d="M26.4332 39.5944C27.3392 39.5944 28.0737 40.3289 28.0737 41.2349V54.3593C28.0737 55.2654 27.3392 55.9999 26.4332 55.9999H18.2304C17.3244 55.9999 16.5898 55.2654 16.5898 54.3593V41.2349C16.5898 40.3293 17.3248 39.5944 18.2304 39.5944H26.4332Z" fill="white"></path><path id="Vector_4" d="M41.1968 33.0321C42.1029 33.0321 42.8374 33.7666 42.8374 34.6727V54.3593C42.8374 55.2653 42.1029 55.9998 41.1968 55.9998H32.9941C32.088 55.9998 31.3535 55.2653 31.3535 54.3593V34.6727C31.3535 33.7671 32.0885 33.0321 32.9941 33.0321H41.1968Z" fill="white"></path><g id="Group_3"><path id="Vector_5" d="M57.7124 54.3594C57.7124 55.2654 56.9778 55.9999 56.0718 55.9999H47.7597C46.8537 55.9999 46.1191 55.2654 46.1191 54.3594V28.1105C46.1191 27.2045 46.8537 26.47 47.7597 26.47H56.0718C56.9778 26.47 57.7124 27.2045 57.7124 28.1105V54.3594Z" fill="white"></path></g><g id="Group_4"><path id="Vector_6" d="M10.0273 36.3132C9.12125 36.3132 8.38672 35.5787 8.38672 34.6727C8.38672 31.9589 10.5946 29.751 13.3084 29.751H19.8706C20.7752 29.751 21.5111 29.0151 21.5111 28.1105C21.5111 25.3967 23.719 23.1888 26.4328 23.1888H32.995C33.8996 23.1888 34.6356 22.4529 34.6356 21.5483C34.6356 20.6422 35.3701 19.9077 36.2761 19.9077C37.1821 19.9077 37.9167 20.6422 37.9167 21.5483C37.9167 24.2621 35.7088 26.4699 32.995 26.4699H26.4328C25.5282 26.4699 24.7922 27.2059 24.7922 28.1105C24.7922 30.8243 22.5844 33.0321 19.8706 33.0321H13.3084C12.4038 33.0321 11.6678 33.7681 11.6678 34.6727C11.6678 35.5788 10.9333 36.3132 10.0273 36.3132Z" fill="white"></path></g></g></g><defs><clipPath id="clip0_271_213"><rect width="60" height="60" fill="white"></rect></clipPath></defs></svg>