<svg width="60" height="60" viewBox="0 0 60 60" fill="none" xmlns="http://www.w3.org/2000/svg"><g id="hourglass 1"><g id="Group"><g id="Group_2"><path id="Vector" d="M38.568 24.3489C42.1741 21.0612 47.0507 16.6147 47.4951 5.99201H50.7148V2.80511H9.28516V5.99201H12.5049C12.9493 16.6147 17.8259 21.0612 21.432 24.3489C23.851 26.5543 25.2197 27.9042 25.2197 30C25.2197 32.0958 23.851 33.4457 21.432 35.6511C17.8259 38.9388 12.9493 43.3853 12.5049 54.008H9.28516V57.1949H50.7148V54.008H47.4951C47.0507 43.3853 42.1741 38.9388 38.568 35.6511C36.149 33.4457 34.7803 32.0958 34.7803 30C34.7803 27.9042 36.149 26.5543 38.568 24.3489ZM28.4066 41.9443C27.9144 42.0458 27.4282 42.1936 26.9536 42.3899L17.1936 46.4287C18.7874 42.376 21.3546 40.0344 23.5791 38.0062C26.0617 35.7428 28.4066 33.6049 28.4066 30V41.9443ZM36.4209 38.0062C38.6454 40.0344 41.2125 42.376 42.8064 46.4286L33.0464 42.3898C32.5718 42.1935 32.0856 42.0457 31.5935 41.9442V30C31.5935 33.6049 33.9383 35.7428 36.4209 38.0062ZM17.1376 13.4281C16.3671 11.4205 15.835 8.99641 15.6957 5.99201H44.3042C44.1649 8.99641 43.6329 11.4205 42.8623 13.4281H17.1376Z" fill="white"></path></g></g></g></svg>