<svg width="60" height="60" viewBox="0 0 60 60" fill="none" xmlns="http://www.w3.org/2000/svg"><g id="fi_9918694"><path id="Vector" d="M54.5578 26.7248L51.0219 22.6178C50.3459 21.838 49.7998 20.3824 49.7998 19.3427V14.9238C49.7998 12.1685 47.5378 9.90702 44.7818 9.90702H40.3618C39.3478 9.90702 37.8658 9.36116 37.0858 8.68533L32.9778 5.15021C31.1838 3.6166 28.2458 3.6166 26.4258 5.15021L22.3438 8.71132C21.5638 9.36116 20.0818 9.90702 19.0678 9.90702H14.5698C11.8138 9.90702 9.55184 12.1685 9.55184 14.9238V19.3687C9.55184 20.3824 9.00584 21.838 8.35584 22.6178L4.84584 26.7508C3.33784 28.5444 3.33784 31.4556 4.84584 33.2492L8.35584 37.3822C9.00584 38.162 9.55184 39.6176 9.55184 40.6313V45.0762C9.55184 47.8315 11.8138 50.093 14.5698 50.093H19.0678C20.0818 50.093 21.5638 50.6388 22.3438 51.3147L26.4518 54.8498C28.2458 56.3834 31.1838 56.3834 33.0038 54.8498L37.1118 51.3147C37.8918 50.6388 39.3478 50.093 40.3878 50.093H44.8078C47.5638 50.093 49.8258 47.8315 49.8258 45.0762V40.6573C49.8258 39.6436 50.3718 38.162 51.0478 37.3822L54.5838 33.2752C56.0918 31.4816 56.0918 28.5184 54.5578 26.7248ZM40.5178 25.0872L27.9598 37.6421C27.5958 38.006 27.1018 38.2139 26.5818 38.2139C26.0618 38.2139 25.5678 38.006 25.2038 37.6421L18.9118 31.3517C18.1578 30.5979 18.1578 29.3502 18.9118 28.5963C19.6658 27.8425 20.9138 27.8425 21.6678 28.5963L26.5818 33.5091L37.7618 22.3319C38.5158 21.5781 39.7638 21.5781 40.5178 22.3319C41.2718 23.0857 41.2718 24.3334 40.5178 25.0872Z" fill="white"></path></g></svg>