<svg width="60" height="60" viewBox="0 0 60 60" fill="none" xmlns="http://www.w3.org/2000/svg"><g id="fi_11820168"><path id="Vector" d="M4.71484 42.5C4.71484 49.3889 10.326 55 17.2148 55H42.2148C49.1037 55 54.7148 49.3889 54.7148 42.5V20.2778H4.71484V42.5ZM22.7704 30C22.7704 29.5139 23.0343 29.0556 23.451 28.8056C23.8815 28.5556 24.4093 28.5417 24.8398 28.7917L37.3398 35.7361C37.7704 35.9722 38.0482 36.4444 38.0482 36.9444C38.0482 37.4444 37.7704 37.9167 37.3398 38.1528L24.8398 45.0972C24.6176 45.2222 24.3955 45.2778 24.1593 45.2778C23.9093 45.2778 23.6732 45.2083 23.451 45.0833C23.0343 44.8333 22.7704 44.375 22.7704 43.8889V30ZM54.7148 17.5C54.7148 10.6111 49.1037 5 42.2148 5H34.6176L42.951 17.5H54.7148ZM39.6315 17.5L31.2843 5H17.2148C16.9926 5 16.7843 5 16.576 5.01389L24.8954 17.5H39.6315ZM13.6037 5.54167C8.46484 7.08333 4.71484 11.8611 4.71484 17.5H21.576L13.6037 5.54167Z" fill="white"></path></g></svg>